<?xml version="1.0" standalone="no"?><!DOCTYPE svg PUBLIC "-//W3C//DTD SVG 1.1//EN" "http://www.w3.org/Graphics/SVG/1.1/DTD/svg11.dtd"><svg t="1487318843156" class="icon" style="" viewBox="0 0 1026 1024" version="1.1" xmlns="http://www.w3.org/2000/svg" p-id="9931" xmlns:xlink="http://www.w3.org/1999/xlink" width="200.390625" height="200"><defs><style type="text/css"></style></defs><path d="M1025.527796 217.026872c-4.318352 14.309914-8.912997 28.54308-12.909008 42.943045-23.473621 84.573187-46.845934 169.174004-70.028936 253.827009-0.780783 2.851954-0.173962 7.02295 1.466398 9.437953 7.153934 10.532891 1.904373 25.172309-10.528797 27.687596-3.203972 0.647753-6.585999 0.565888-9.886161 0.566912-187.976232 0.024559-375.952464 0.044002-563.928696-0.080841-5.936199-0.004093-11.870352-1.529843-18.627243-2.459005 1.168616 4.314259 2.568499 9.447163 3.948939 14.586207 8.976442 33.416064 18.11866 66.789149 26.7789 100.286054 1.737574 6.719028 4.246721 9.135054 11.675924 9.123798 178.296779-0.26606 356.594581-0.206708 534.89136-0.206708 2.801812 0 5.604648-0.039909 8.405437 0.01535 15.714913 0.308015 22.61302 9.083889 19.594267 24.457018-1.554402 7.91732-6.523577 11.840676-14.007015 12.958126-3.499707 0.521886-7.114025 0.356111-10.677177 0.356111-186.703239 0.014326-373.405455 0.014326-560.108694-0.001023-3.562129 0-7.181563 0.157589-10.674107-0.396019-7.540743-1.193175-12.044314-5.510504-13.804401-13.254885-5.850242-25.732058-11.368932-51.566446-18.202571-77.0437-44.027749-164.146501-88.400353-328.19988-132.49564-492.327962-1.702782-6.338359-4.126994-8.839319-11.195993-8.788154-49.666166 0.36225-99.335403 0.226151-149.004639 0.163729C12.647041 118.860085 6.411013 113.416096 5.809309 101.537558c-0.664126-13.100366 5.633301-20.405749 18.86158-20.456914 52.215222-0.201591 104.430444-0.071631 156.645666-0.144286 6.316869-0.00921 11.273764 2.740414 13.484106 8.208962 1.760087 4.354168 4.354168 4.690836 8.089235 4.950755 11.502985 0.799202 16.9613 5.379521 19.953448 16.471137 37.239136 138.045029 74.460876 276.094152 111.695918 414.140205 0.523933 1.941212 1.166569 3.848655 1.937119 6.375198 1.078565-1.006933 1.979074-1.49505 2.350534-2.246157 5.658883-11.44261 15.039531-15.267728 27.482935-15.249309 133.212978 0.192382 266.426979 0.119727 399.640979 0.118704 44.574195 0 89.148389 0 133.722584 0 3.022847 0 6.045693 0 9.541307 0 10.608615-40.285518 21.087271-80.077803 31.918967-121.210619-3.294023 0-5.681396 0-8.068769 0-182.117804-0.001023-364.235608-0.002047-546.354436 0.00614-2.034333 0-4.100388-0.089028-6.098905 0.210801-10.952446 1.64343-14.997576-0.867764-17.551748-11.07422-3.13234-12.518105 0.75213-22.895453 9.993608-25.595958 3.592828-1.049912 7.521301-1.320065 11.296277-1.321088 182.882214-0.060375 365.764428-0.068562 548.646642 0.041956 4.815679 0.00307 9.629311 1.393743 15.418154 2.288113 10.016121-40.1003 20.321838-81.361029 30.869055-123.588783-4.442172 0-7.696286 0-10.9504 0-199.183482 0-398.366963 0-597.550445-0.001023-3.056616 0-6.117324 0.078795-9.168824-0.052189-11.941983-0.5137-17.886369-5.979178-18.530029-16.934694-0.601704-10.232039 7.015787-19.326161 17.494443-20.617573 3.01466-0.37146 6.104021-0.173962 9.15859-0.173962 204.787106-0.00614 409.574213 0 614.361319-0.046049 4.041036-0.001023 8.224312-0.049119 12.097526-1.034563 12.161994-3.092431 21.653159 0.768503 29.331026 10.200316C1025.527796 208.875215 1025.527796 212.951043 1025.527796 217.026872z" p-id="9932" fill="#515151"></path><path d="M972.254475 851.585185c-0.552585 45.859467-29.547966 85.6231-70.88749 97.208972-55.774281 15.632025-119.861902-29.518291-125.112486-88.054475-5.796006-64.624856 43.690058-108.301612 106.149599-104.836697C935.756213 758.863411 972.883809 799.312658 972.254475 851.585185zM870.923626 901.760958c31.798217-0.007163 57.247842-25.435299 57.323567-57.276495 0.075725-31.852452-25.266453-57.423851-57.046251-57.564044-32.038694-0.140193-58.057277 25.78527-57.877175 57.670467C813.502845 876.278587 839.185784 901.769145 870.923626 901.760958z" p-id="9933" fill="#515151"></path><path d="M533.376866 851.352895c-0.423649 50.41932-34.585703 91.705632-82.662675 99.900268-35.847439 6.110161-74.217329-13.798261-94.26799-48.91199-27.580149-48.301076-12.110829-109.260449 34.662451-134.76738C452.364785 734.168985 533.519106 772.643252 533.376866 851.352895zM437.414281 908.099317c31.903617 0.394996 57.647955-24.579815 58.155515-56.416917 0.508583-31.878035-24.564465-57.960063-56.181557-58.439994-32.136931-0.488117-58.316174 24.861224-58.707077 56.847729C380.294352 881.681644 405.748071 907.70739 437.414281 908.099317z" p-id="9934" fill="#515151"></path></svg>