<?xml version="1.0" standalone="no"?><!DOCTYPE svg PUBLIC "-//W3C//DTD SVG 1.1//EN" "http://www.w3.org/Graphics/SVG/1.1/DTD/svg11.dtd"><svg t="1487318174025" class="icon" style="" viewBox="0 0 1024 1024" version="1.1" xmlns="http://www.w3.org/2000/svg" p-id="8995" xmlns:xlink="http://www.w3.org/1999/xlink" width="200" height="200"><defs><style type="text/css"></style></defs><path d="M978.221 507.167l-469.737-439.203-469.737 437.913c-9.189 8.567-9.702 22.975-1.114 32.155 8.579 9.173 23.004 9.692 32.187 1.105l438.629-408.894 438.649 410.139c4.401 4.112 9.987 6.144 15.563 6.144 6.070 0 12.143-2.411 16.623-7.209 8.596-9.173 8.123-23.568-1.065-32.149v0zM978.221 507.167z" fill="#515151" p-id="8996"></path><path d="M834.88 516.187c-12.573 0-22.772 10.193-22.772 22.75v348.839h-182.185v-242.67h-242.91v242.67h-182.178v-348.839c0-12.557-10.189-22.75-22.771-22.75-12.59 0-22.777 10.193-22.777 22.75v394.338h273.275v-242.669h151.819v242.669h273.268v-394.338c0.001-12.557-10.201-22.75-22.768-22.75v0zM834.88 516.187z" fill="#515151" p-id="8997"></path><path d="M675.472 190.101h136.635v121.332c0 12.576 10.201 22.755 22.772 22.755 12.569 0 22.769-10.179 22.769-22.755v-166.831h-182.177c-12.576 0-22.777 10.174-22.777 22.75-0.001 12.572 10.201 22.75 22.777 22.75v0zM675.472 190.101z" fill="#515151" p-id="8998"></path></svg>