<?xml version="1.0" standalone="no"?><!DOCTYPE svg PUBLIC "-//W3C//DTD SVG 1.1//EN" "http://www.w3.org/Graphics/SVG/1.1/DTD/svg11.dtd"><svg t="1487314862851" class="icon" style="" viewBox="0 0 1024 1024" version="1.1" xmlns="http://www.w3.org/2000/svg" p-id="2086" xmlns:xlink="http://www.w3.org/1999/xlink" width="200" height="200"><defs><style type="text/css"></style></defs><path d="M709.564611 796.782022 709.564611 637.101229 709.564611 431.378821l0-41.582047c0-92.469018-74.941829-167.435407-167.396521-167.435407L503.8289 222.361367 232.445026 222.361367 71.588455 222.361367c-3.629667 0-6.566556 2.922563-6.566556 6.513344l0 160.923086 0 247.303432 0 159.680792c0 3.590781 2.936889 6.501064 6.566556 6.501064l125.69577 0c3.629667 0 6.566556-2.923586 6.566556-6.540973L203.850781 640.385019l0-289.38076c0-3.615341 2.937912-6.553253 6.567579-6.553253l270.290983 0c50.753941 0 91.921549 41.141002 91.921549 91.907223l0 189.796694 0 170.586167c0 3.617387 2.936889 6.540973 6.541997 6.540973l123.851772 0C706.628746 803.283086 709.564611 800.372803 709.564611 796.782022z" p-id="2087" fill="#ffffff"></path><path d="M455.746812 796.742113c0 3.617387-2.90926 6.540973-6.53995 6.540973L323.537697 803.283086c-3.629667 0-6.567579-2.923586-6.567579-6.540973L316.970118 455.166597c0-3.615341 2.937912-6.55223 6.567579-6.55223l125.669164 0c3.63069 0 6.53995 2.936889 6.53995 6.55223L455.746812 796.742113z" p-id="2088" fill="#ffffff"></path><path d="M958.27202 796.742113c0 3.617387-2.937912 6.540973-6.568602 6.540973L826.062905 803.283086c-3.631714 0-6.596232-2.923586-6.596232-6.540973L819.466674 228.927923c0-3.63069 2.964518-6.566556 6.596232-6.566556l125.640512 0c3.63069 0 6.568602 2.935865 6.568602 6.566556L958.27202 796.742113z" p-id="2089" fill="#ffffff"></path></svg>