<?xml version="1.0" standalone="no"?><!DOCTYPE svg PUBLIC "-//W3C//DTD SVG 1.1//EN" "http://www.w3.org/Graphics/SVG/1.1/DTD/svg11.dtd"><svg t="1487317741960" class="icon" style="" viewBox="0 0 1025 1024" version="1.1" xmlns="http://www.w3.org/2000/svg" p-id="1186" xmlns:xlink="http://www.w3.org/1999/xlink" width="200.1953125" height="200"><defs><style type="text/css"></style></defs><path d="M790.135403 726.005482l221.883586 221.926239a44.444963 44.444963 0 0 1 0 62.913935 44.444963 44.444963 0 0 1-62.913935 0l-221.926239-221.883586c-174.794105 143.230504-433.1891 133.292235-596.381449-29.900114-173.855728-173.813074-173.855728-455.624849 0-629.437923 173.813074-173.813074 455.624849-173.813074 629.437923 0 163.235003 163.192349 173.130618 421.587344 29.900114 596.381449zM193.753954 192.580621a356.028891 356.028891 0 0 0 0 503.5674 356.028891 356.028891 0 0 0 503.524747 0h0.042653v-0.042653A356.071545 356.071545 0 0 0 193.753954 192.580621z" p-id="1187" fill="#515151"></path></svg>